<?xml version="1.0" encoding="utf-8"?>
<!-- Generator: Adobe Illustrator 16.0.0, SVG Export Plug-In . SVG Version: 6.00 Build 0)  -->
<!DOCTYPE svg PUBLIC "-//W3C//DTD SVG 1.1//EN" "http://www.w3.org/Graphics/SVG/1.1/DTD/svg11.dtd">
<svg version="1.1" id="Layer_1" xmlns="http://www.w3.org/2000/svg" xmlns:xlink="http://www.w3.org/1999/xlink" x="0px" y="0px"
	 width="396.717px" height="87.189px" viewBox="0 0 396.717 87.189" enable-background="new 0 0 396.717 87.189"
	 xml:space="preserve">
<g>
	<g>
		<path fill="#FFFFFF" d="M44.519,71.904L33.315,61.277c1.361-2.293,1.075-5.295-0.899-7.268c-1.167-1.17-2.698-1.754-4.228-1.754
			c-1.53,0-3.06,0.584-4.228,1.754c-2.337,2.336-2.337,6.119-0.002,8.455c1.168,1.17,2.7,1.752,4.23,1.752
			c1.159,0,2.316-0.338,3.318-1.006l11.189,10.613L44.519,71.904z M25.832,60.592c-1.298-1.297-1.297-3.412,0.002-4.709
			c0.629-0.631,1.465-0.977,2.354-0.977s1.725,0.346,2.354,0.977c1.299,1.297,1.3,3.412,0.001,4.709
			c-0.629,0.631-1.466,0.977-2.355,0.977C27.298,61.568,26.462,61.223,25.832,60.592z"/>
		<path fill="#FFFFFF" d="M63.231,54.014c-1.169-1.17-2.7-1.758-4.232-1.758c-1.157,0-2.312,0.34-3.312,1.004L33.313,32
			c1.364-2.295,1.08-5.299-0.896-7.273c-1.167-1.168-2.698-1.752-4.228-1.752c-1.53,0-3.061,0.584-4.228,1.752
			c-2.337,2.336-2.337,6.121-0.002,8.457c1.168,1.168,2.699,1.752,4.23,1.752c1.157,0,2.313-0.334,3.313-1.004l22.374,21.264
			c-1.362,2.295-1.076,5.299,0.898,7.273c1.167,1.166,2.697,1.752,4.227,1.752c1.531,0,3.063-0.586,4.231-1.752
			C65.565,60.133,65.565,56.346,63.231,54.014z M25.833,31.309c-0.629-0.631-0.976-1.465-0.976-2.355
			c0-0.887,0.347-1.725,0.978-2.354c0.629-0.631,1.464-0.975,2.354-0.975c0.89,0,1.725,0.344,2.354,0.975
			c1.299,1.299,1.299,3.41,0.001,4.709c-0.629,0.633-1.466,0.977-2.355,0.977C27.3,32.285,26.462,31.941,25.833,31.309z
			 M61.359,60.592c-0.63,0.631-1.468,0.98-2.359,0.98c-0.889,0-1.725-0.35-2.353-0.977c-1.299-1.297-1.299-3.416,0-4.713
			c0.628-0.629,1.464-0.977,2.353-0.977c0.891,0,1.729,0.348,2.359,0.98C62.656,57.184,62.656,59.295,61.359,60.592z"/>
		<path fill="#FFFFFF" d="M63.231,24.727c-1.168-1.168-2.699-1.752-4.23-1.752c-1.159,0-2.317,0.338-3.319,1.008L44.493,13.367
			l-1.823,1.922l11.203,10.629c-1.359,2.293-1.073,5.291,0.9,7.266c1.167,1.168,2.698,1.752,4.228,1.752
			c1.53,0,3.061-0.584,4.228-1.752C65.566,30.848,65.566,27.063,63.231,24.727z M61.355,31.309
			c-0.629,0.633-1.464,0.977-2.354,0.977s-1.725-0.344-2.354-0.977c-1.299-1.297-1.299-3.41-0.001-4.709
			c0.629-0.631,1.466-0.975,2.355-0.975c0.89,0,1.727,0.344,2.356,0.975C62.656,27.898,62.655,30.012,61.355,31.309z"/>
	</g>
	<g>
		<path fill="#FFFFFF" d="M43.595,87.189C19.557,87.189,0,67.633,0,43.596C0,19.557,19.557,0,43.595,0
			C67.633,0,87.19,19.557,87.19,43.596C87.19,67.633,67.633,87.189,43.595,87.189z M43.595,2.65
			C21.018,2.65,2.65,21.018,2.65,43.596c0,22.576,18.368,40.943,40.944,40.943c22.577,0,40.945-18.367,40.945-40.943
			C84.54,21.018,66.172,2.65,43.595,2.65z"/>
	</g>
</g>
<g>
	<g>
		<path fill="#FFFFFF" d="M120.464,34.212c0.429,0,0.856,0.035,0.856,0.248c0,4.652,3.33,4.543,5.475,4.543
			c2.609,0,5.617,0.072,5.617-4.291c0-3.898-3.294-4.473-6.262-5.471c-2.932-1.002-6.258-2.004-6.258-6.297
			c0-5.471,4.221-5.508,6.938-5.508c2.396,0,6.974,0.037,6.974,6.115c0,0.252-0.429,0.252-0.859,0.252c-0.465,0-0.855,0-0.855-0.252
			c0-4.4-3.363-4.363-5.224-4.363c-2.251,0-5.26-0.143-5.26,3.719c0,3.295,2.865,3.971,5.439,4.795
			c2.79,0.859,7.118,1.895,7.118,7.043c0,5.977-4.435,6.01-7.367,6.01c-2.646,0-7.226-0.033-7.226-6.295
			C119.569,34.247,120,34.212,120.464,34.212z"/>
		<path fill="#FFFFFF" d="M147.051,23.837v-6.111c0-0.252,0.395-0.252,0.859-0.252c0.431,0,0.859,0,0.859,0.252v6.111
			c0,4.043,1.537,9.729,2.897,14.236c1.646-4.471,2.86-9.977,2.896-9.977h2.292c0,0,1.25,5.469,2.826,9.977h0.106
			c1.357-4.508,2.825-10.225,2.825-14.236c0-0.75,0.036-5.436,0.036-6.111c0-0.252,0.394-0.252,0.859-0.252
			c0.464,0,0.858,0,0.858,0.252v6.111c0,4.26-1.575,10.697-3.33,16.172c-0.25,0.713-0.533,0.713-0.927,0.713h-0.752
			c-0.394,0-0.646,0-0.895-0.75l-0.394-1.111c-0.645-1.824-1.464-4.865-2.325-8.227c-1.251,4.365-2.538,8.658-2.789,9.338
			c-0.286,0.75-0.536,0.75-0.859,0.75h-0.859c-0.358,0-0.608,0-0.894-0.75C148.626,34.497,147.051,28.026,147.051,23.837z"/>
		<path fill="#FFFFFF" d="M198.763,19.226h-6.689c-0.214,0-0.214-0.396-0.214-0.859c0-0.502,0-0.893,0.214-0.893h15.095
			c0.211,0,0.251,0.391,0.251,0.893c0,0.463-0.04,0.859-0.251,0.859h-6.655v21.279c0,0.217-0.394,0.217-0.856,0.217
			c-0.501,0-0.894-0.033-0.894-0.217V19.226z"/>
		<path fill="#FFFFFF" d="M234.079,33.89c0.464,0,0.892,0,0.892,0.213c0,6.725-4.97,6.619-7.083,6.619
			c-3.109,0-7.579-0.289-7.579-11.627c0-11.34,4.291-11.621,7.9-11.621c1.792,0,6.799,0,6.799,6.867
			c0,0.209-0.429,0.209-0.893,0.209c-0.432,0-0.859,0-0.859-0.246c0-5.295-3.435-5.078-4.974-5.078
			c-3.146,0-6.221-0.143-6.221,9.869c0,10.055,3.251,9.908,5.826,9.908c2.256,0,5.332,0.033,5.332-4.9
			C233.22,33.853,233.614,33.89,234.079,33.89z"/>
		<path fill="#FFFFFF" d="M247.896,17.726c0-0.217,0.357-0.252,0.858-0.252c0.465,0,0.859,0.035,0.859,0.252v10.441h10.442V17.726
			c0-0.217,0.395-0.252,0.895-0.252c0.465,0,0.856,0.035,0.856,0.252v22.779c0,0.217-0.392,0.217-0.856,0.217
			c-0.5,0-0.895,0-0.895-0.217V29.917h-10.442v10.588c0,0.217-0.395,0.217-0.859,0.217c-0.501,0-0.858,0-0.858-0.217V17.726z"/>
		<path fill="#FFFFFF" d="M178.971,40.505c0,0.217-0.395,0.217-0.859,0.217c-0.501,0-0.858,0-0.858-0.217V17.726
			c0-0.217,0.357-0.252,0.858-0.252c0.465,0,0.859,0.035,0.859,0.252V40.505z"/>
		<path fill="#FFFFFF" d="M274.695,17.474c0,0,5.938,0,7.441,0c4.97,0,4.792,5.865,4.792,5.865s0.249,3.467-1.61,5.258
			c3.219,1.357,3.04,6.115,3.04,6.115s0.288,6.01-5.435,6.01c-3.259,0-8.229,0-8.229,0V17.474z M282.422,28.206
			c2.896,0,2.791-4.477,2.791-4.477s0.285-4.469-2.934-4.469c-1.144,0-5.829,0-5.829,0v8.945
			C276.45,28.206,281.313,28.206,282.422,28.206z M283.102,39.003c3.541,0,3.541-3.719,3.541-4.326c0-4.367-2.541-4.76-2.541-4.76
			h-7.651v9.086C276.45,39.003,281.205,39.003,283.102,39.003z"/>
		<path fill="#FFFFFF" d="M301.25,29.095c0-11.621,4.545-11.658,7.653-11.658c3.329,0,7.586,0.072,7.586,11.658
			c0,11.594-4.294,11.627-7.586,11.627C305.831,40.722,301.25,40.722,301.25,29.095z M314.737,29.095
			c0-10.334-3.259-9.906-5.866-9.906c-2.432,0-5.867-0.428-5.867,9.906c0,10.336,3.508,9.908,5.899,9.908
			C311.442,39.003,314.737,39.472,314.737,29.095z"/>
		<path fill="#FFFFFF" d="M329.377,37.255c0-1.723,0.932-7.48,5.397-18.854c0.359-0.928,0.608-0.928,1.076-0.928h0.749
			c0.432,0,0.647,0,1.006,0.928c4.538,11.66,5.324,16.922,5.324,18.854v3.25c0,0.217-0.537,0.217-0.858,0.217
			c-0.322,0-0.859,0-0.859-0.217v-3.25c0-1.539-0.641-4.012-0.641-4.012h-8.836c0,0-0.644,2.717-0.644,4.012v3.25
			c0,0.217-0.534,0.217-0.855,0.217c-0.322,0-0.859,0-0.859-0.217V37.255z M340.144,31.53c-1.434-5.688-3.829-11.842-4.008-11.842
			c-0.249,0.539-2.539,6.514-3.936,11.842H340.144z"/>
		<path fill="#FFFFFF" d="M355.818,17.474c0,0,6.938,0,8.689,0c0.57,0,5.08,0.281,5.08,6.078c0,5.332-3.292,5.865-3.866,6.121
			c-0.212,0.066-0.391,0.139-0.644,0.172l4.688,10.232c0,0.035,0,0.035,0,0.07c0,0.184-0.933,0.752-1.396,0.752
			c-0.109,0-0.18-0.035-0.216-0.107l-4.934-10.838c-2.326,0-5.688,0-5.688,0s0,10.158,0,10.551c0,0.217-0.395,0.217-0.859,0.217
			c-0.428,0-0.855-0.033-0.855-0.217C355.818,40.253,355.818,17.474,355.818,17.474z M364.936,28.239
			c-0.143,0,2.933,0.252,2.933-4.652c0-4.361-3.039-4.361-3.396-4.361c-0.963,0-6.938,0-6.938,0v9.014
			C357.533,28.239,364.219,28.239,364.936,28.239z"/>
		<path fill="#FFFFFF" d="M382.655,17.474c0,0,4.867,0,6.692,0c2.823,0,7.369-0.107,7.369,11.621
			c0,11.555-4.473,11.627-7.084,11.627c-2.219,0-6.978,0-6.978,0V17.474z M389.601,39.003c1.927,0,5.36,0.393,5.36-9.834
			c0-10.34-3.291-9.943-5.471-9.943c-1.861,0-5.116,0-5.116,0v19.777C384.374,39.003,387.059,39.003,389.601,39.003z"/>
	</g>
	<g>
		<path fill="#FFFFFF" d="M120.905,57.288c0,0,3.179,0,3.983,0c2.662,0,2.566,3.139,2.566,3.139s0.135,1.857-0.862,2.815
			c1.724,0.729,1.628,3.274,1.628,3.274s0.153,3.218-2.911,3.218c-1.743,0-4.404,0-4.404,0V57.288z M125.042,63.031
			c1.551,0,1.494-2.393,1.494-2.393s0.153-2.396-1.57-2.396c-0.613,0-3.121,0-3.121,0v4.788
			C121.844,63.031,124.448,63.031,125.042,63.031z M125.405,68.815c1.896,0,1.896-1.993,1.896-2.316c0-2.337-1.36-2.548-1.36-2.548
			h-4.098v4.864C121.844,68.815,124.39,68.815,125.405,68.815z"/>
		<path fill="#FFFFFF" d="M136.337,63.51c-1.705-2.66-3.427-5.284-3.753-5.802c-0.019,0-0.019-0.021-0.019-0.038
			c0-0.097,0.536-0.497,0.728-0.497c0.076,0,1.724,2.584,3.504,5.341c1.8-2.774,3.447-5.341,3.505-5.341
			c0.191,0,0.728,0.4,0.728,0.497c0,0.018-0.019,0.038-0.019,0.038l-3.734,5.802v6.11c0,0.114-0.23,0.114-0.479,0.114
			s-0.459,0-0.459-0.114V63.51z"/>
		<path fill="#FFFFFF" d="M158.623,66.249c0.23,0,0.46,0.018,0.46,0.135c0,2.49,1.78,2.432,2.929,2.432
			c1.398,0,3.007,0.038,3.007-2.299c0-2.087-1.762-2.393-3.351-2.93c-1.57-0.535-3.352-1.073-3.352-3.371
			c0-2.928,2.26-2.948,3.715-2.948c1.283,0,3.734,0.021,3.734,3.274c0,0.135-0.229,0.135-0.459,0.135c-0.249,0-0.46,0-0.46-0.135
			c0-2.354-1.799-2.337-2.795-2.337c-1.207,0-2.815-0.076-2.815,1.992c0,1.761,1.532,2.125,2.911,2.566
			c1.493,0.458,3.811,1.014,3.811,3.773c0,3.197-2.375,3.216-3.945,3.216c-1.417,0-3.868-0.019-3.868-3.369
			C158.144,66.267,158.374,66.249,158.623,66.249z"/>
		<path fill="#FFFFFF" d="M171.239,57.288c0,0,3.715,0,4.653,0c0.326,0,2.739,0.152,2.739,3.274c0,3.253-2.221,3.427-2.47,3.427
			c-0.843,0-3.983,0-3.983,0s0,5.439,0,5.631c0,0.114-0.23,0.114-0.459,0.114c-0.25,0-0.479,0-0.479-0.114
			S171.239,57.288,171.239,57.288z M176.123,63.052c0.096,0,1.57,0,1.57-2.489c0-2.319-1.608-2.319-1.819-2.319
			c-0.517,0-3.696,0-3.696,0v4.809C172.178,63.052,175.759,63.052,176.123,63.052z"/>
		<path fill="#FFFFFF" d="M183.684,67.877c0-0.919,0.498-4.003,2.892-10.092c0.191-0.497,0.326-0.497,0.575-0.497h0.402
			c0.23,0,0.345,0,0.537,0.497c2.432,6.242,2.853,9.058,2.853,10.092v1.743c0,0.114-0.288,0.114-0.459,0.114
			c-0.172,0-0.46,0-0.46-0.114v-1.743c0-0.822-0.344-2.146-0.344-2.146h-4.73c0,0-0.345,1.455-0.345,2.146v1.743
			c0,0.114-0.287,0.114-0.459,0.114s-0.459,0-0.459-0.114V67.877z M189.448,64.813c-0.766-3.045-2.049-6.337-2.145-6.337
			c-0.134,0.285-1.359,3.482-2.106,6.337H189.448z"/>
		<path fill="#FFFFFF" d="M199.481,58.226h-3.582c-0.115,0-0.115-0.212-0.115-0.461c0-0.268,0-0.477,0.115-0.477h8.081
			c0.115,0,0.134,0.209,0.134,0.477c0,0.249-0.019,0.461-0.134,0.461h-3.562V69.62c0,0.114-0.211,0.114-0.46,0.114
			c-0.269,0-0.478-0.02-0.478-0.114V58.226z"/>
		<path fill="#FFFFFF" d="M216.042,66.076c0.249,0,0.479,0,0.479,0.114c0,3.601-2.662,3.544-3.791,3.544
			c-1.666,0-4.061-0.152-4.061-6.225c0-6.069,2.299-6.222,4.232-6.222c0.957,0,3.639,0,3.639,3.677c0,0.114-0.23,0.114-0.479,0.114
			c-0.229,0-0.459,0-0.459-0.135c0-2.833-1.839-2.719-2.662-2.719c-1.686,0-3.332-0.076-3.332,5.284
			c0,5.382,1.742,5.306,3.121,5.306c1.207,0,2.854,0.02,2.854-2.625C215.583,66.058,215.794,66.076,216.042,66.076z"/>
		<path fill="#FFFFFF" d="M221.497,57.42c0-0.114,0.191-0.132,0.46-0.132c0.249,0,0.46,0.018,0.46,0.132v5.594h5.591V57.42
			c0-0.114,0.211-0.132,0.479-0.132c0.249,0,0.459,0.018,0.459,0.132v12.2c0,0.114-0.21,0.114-0.459,0.114
			c-0.269,0-0.479,0-0.479-0.114v-5.669h-5.591v5.669c0,0.114-0.211,0.114-0.46,0.114c-0.269,0-0.46,0-0.46-0.114V57.42z"/>
	</g>
</g>
</svg>
